<svg width="488" height="157" viewBox="0 0 488 157" fill="none" xmlns="http://www.w3.org/2000/svg">
<path d="M91.2002 12.3V117.6H65.5502V74.25H25.6502V117.6H0.000195719V12.3H25.6502V53.55H65.5502V12.3H91.2002ZM147.817 118.8C139.617 118.8 132.217 117.05 125.617 113.55C119.117 110.05 113.967 105.05 110.167 98.55C106.467 92.05 104.617 84.45 104.617 75.75C104.617 67.15 106.517 59.6 110.317 53.1C114.117 46.5 119.317 41.45 125.917 37.95C132.517 34.45 139.917 32.7 148.117 32.7C156.317 32.7 163.717 34.45 170.317 37.95C176.917 41.45 182.117 46.5 185.917 53.1C189.717 59.6 191.617 67.15 191.617 75.75C191.617 84.35 189.667 91.95 185.767 98.55C181.967 105.05 176.717 110.05 170.017 113.55C163.417 117.05 156.017 118.8 147.817 118.8ZM147.817 96.6C152.717 96.6 156.867 94.8 160.267 91.2C163.767 87.6 165.517 82.45 165.517 75.75C165.517 69.05 163.817 63.9 160.417 60.3C157.117 56.7 153.017 54.9 148.117 54.9C143.117 54.9 138.967 56.7 135.667 60.3C132.367 63.8 130.717 68.95 130.717 75.75C130.717 82.45 132.317 87.6 135.517 91.2C138.817 94.8 142.917 96.6 147.817 96.6ZM247.225 55.2H233.425V117.6H207.775V55.2H198.475V33.9H207.775V31.5C207.775 21.2 210.725 13.4 216.625 8.1C222.525 2.7 231.175 2.38419e-07 242.575 2.38419e-07C244.475 2.38419e-07 245.875 0.0499996 246.775 0.149998V21.9C241.875 21.6 238.425 22.3 236.425 24C234.425 25.7 233.425 28.75 233.425 33.15V33.9H247.225V55.2ZM301.278 55.2H287.478V117.6H261.828V55.2H252.528V33.9H261.828V31.5C261.828 21.2 264.778 13.4 270.678 8.1C276.578 2.7 285.228 2.38419e-07 296.628 2.38419e-07C298.528 2.38419e-07 299.928 0.0499996 300.828 0.149998V21.9C295.928 21.6 292.478 22.3 290.478 24C288.478 25.7 287.478 28.75 287.478 33.15V33.9H301.278V55.2Z" fill="#F5F5F5"/>
<path d="M329.23 50.7C332.03 45.8 336.13 41.8 341.53 38.7C346.93 35.6 353.08 34.05 359.98 34.05C367.38 34.05 374.03 35.8 379.93 39.3C385.83 42.8 390.48 47.75 393.88 54.15C397.28 60.45 398.98 67.8 398.98 76.2C398.98 84.5 397.28 91.9 393.88 98.4C390.48 104.9 385.78 109.95 379.78 113.55C373.88 117.15 367.28 118.95 359.98 118.95C352.88 118.95 346.63 117.4 341.23 114.3C335.93 111.2 331.93 107.25 329.23 102.45V117.6H315.58V6.6H329.23V50.7ZM385.03 76.2C385.03 70 383.78 64.6 381.28 60C378.78 55.4 375.38 51.9 371.08 49.5C366.88 47.1 362.23 45.9 357.13 45.9C352.13 45.9 347.48 47.15 343.18 49.65C338.98 52.05 335.58 55.6 332.98 60.3C330.48 64.9 329.23 70.25 329.23 76.35C329.23 82.55 330.48 88 332.98 92.7C335.58 97.3 338.98 100.85 343.18 103.35C347.48 105.75 352.13 106.95 357.13 106.95C362.23 106.95 366.88 105.75 371.08 103.35C375.38 100.85 378.78 97.3 381.28 92.7C383.78 88 385.03 82.5 385.03 76.2ZM487.747 35.4L438.247 156.3H424.147L440.347 116.7L407.197 35.4H422.347L448.147 102L473.647 35.4H487.747Z" fill="#F5F5F5"/>
</svg>
